<?xml version="1.0" encoding="utf-8"?>
<!-- Generator: Adobe Illustrator 26.5.0, SVG Export Plug-In . SVG Version: 6.00 Build 0)  -->
<svg version="1.1" id="Layer_1" xmlns="http://www.w3.org/2000/svg" xmlns:xlink="http://www.w3.org/1999/xlink" x="0px" y="0px"
	 viewBox="0 0 274.55 97.05" style="enable-background:new 0 0 274.55 97.05;" xml:space="preserve">
<g>
	<g>
		<g>
			<path d="M170.03,29.74h-8.85c-0.57-3.52-3.14-5.23-6.85-5.23c-5,0-7.9,4.04-7.9,10.09c0,6.04,2.9,10.09,7.9,10.09
				c3.9,0,6.42-2.05,6.85-6.28h8.85c-0.52,8.61-6.71,13.89-15.51,13.89c-9.66,0-16.94-7.18-16.94-17.7c0-9.71,6.47-17.7,16.94-17.7
				C161.89,16.9,169.7,21.42,170.03,29.74z"/>
			<path d="M201.66,17.61v7.61h-10.13v26.36h-8.85V25.22h-10.13v-7.61H201.66z"/>
			<path d="M232.63,17.61v7.09h-18.22v5.95h16.65v6.85h-16.65v6.47h18.7v7.61h-27.55V17.61H232.63z"/>
			<path d="M269.55,29.74h-8.85c-0.57-3.52-3.14-5.23-6.85-5.23c-5,0-7.9,4.04-7.9,10.09c0,6.04,2.9,10.09,7.9,10.09
				c3.9,0,6.42-2.05,6.85-6.28h8.85c-0.52,8.61-6.71,13.89-15.51,13.89c-9.66,0-16.94-7.18-16.94-17.7c0-9.71,6.47-17.7,16.94-17.7
				C261.42,16.9,269.22,21.42,269.55,29.74z"/>
		</g>
		<g>
			<path d="M153.46,63.01c0,1.87-1.1,3.58-3.16,4.58v0.06c2.71,0.61,4.13,2.64,4.13,5.54c0,4.25-3.26,6.96-7.83,6.96
				c-4.54,0-7.64-2.61-7.64-7.35v-0.1h2.77c0.13,3.26,1.97,5.03,4.87,5.03c2.8,0,4.93-1.84,4.93-4.42c0-2.71-1.93-4.38-4.96-4.38
				c-0.45,0-1,0.03-1.55,0.1v-2.32c0.26,0.03,0.58,0.03,1.03,0.03c2.71,0,4.54-1.55,4.54-3.74c0-2.29-1.64-3.67-4.06-3.67
				c-2.68,0-4.29,1.84-4.35,4.96h-2.74c0.23-4.74,2.8-7.38,7.09-7.38C150.89,56.91,153.46,59.24,153.46,63.01z"/>
			<path d="M171.38,63.01c0,1.87-1.1,3.58-3.16,4.58v0.06c2.71,0.61,4.13,2.64,4.13,5.54c0,4.25-3.26,6.96-7.83,6.96
				c-4.54,0-7.64-2.61-7.64-7.35v-0.1h2.77c0.13,3.26,1.97,5.03,4.87,5.03c2.8,0,4.93-1.84,4.93-4.42c0-2.71-1.93-4.38-4.96-4.38
				c-0.45,0-1,0.03-1.55,0.1v-2.32c0.26,0.03,0.58,0.03,1.03,0.03c2.71,0,4.54-1.55,4.54-3.74c0-2.29-1.64-3.67-4.06-3.67
				c-2.68,0-4.29,1.84-4.35,4.96h-2.74c0.23-4.74,2.8-7.38,7.09-7.38C168.81,56.91,171.38,59.24,171.38,63.01z"/>
			<path d="M189.01,57.3v2.42h-9.22l-1.22,6.58l0.06,0.06c0.97-1.06,2.45-1.64,4.25-1.64c4.42,0,7.38,2.97,7.38,7.8
				c0,4.38-3.22,7.64-7.99,7.64c-4,0-7.16-2.48-7.28-6.51v-0.03h2.74c0.16,2.42,2.16,4.13,4.8,4.13c2.8,0,4.83-2.06,4.83-5.41
				c0-3.09-2.29-5.19-5.16-5.19c-1.64,0-3.03,0.71-4.25,2.16l-2.35-0.13l2.13-11.86H189.01z"/>
			<path d="M206.45,59.43c1.26,1.64,1.9,4.71,1.9,9.12c0,4.42-0.61,7.41-1.9,9.09c-1.26,1.64-3.16,2.51-5.7,2.51
				c-2.55,0-4.45-0.84-5.71-2.55c-1.26-1.68-1.9-4.71-1.9-9.06c0-4.38,0.64-7.41,1.9-9.09c1.29-1.71,3.16-2.55,5.71-2.55
				C203.29,56.91,205.16,57.75,206.45,59.43z M197.23,75.83c0.81,1.26,1.97,1.9,3.51,1.9c1.68,0,2.9-0.71,3.64-2.19
				s1.06-3.77,1.06-6.93c0-2.13,0.03-5.51-1.35-7.54c-0.71-1.03-1.77-1.74-3.38-1.74c-1.45,0-2.61,0.61-3.45,1.87
				c-0.81,1.22-1.22,3.67-1.22,7.32C196.04,72.13,196.46,74.55,197.23,75.83z"/>
			<path d="M220.63,69.52v2.58h-9.31v-2.58H220.63z"/>
			<path d="M236.9,59.43c1.26,1.64,1.9,4.71,1.9,9.12c0,4.42-0.61,7.41-1.9,9.09c-1.26,1.64-3.16,2.51-5.7,2.51
				c-2.55,0-4.45-0.84-5.71-2.55c-1.26-1.68-1.9-4.71-1.9-9.06c0-4.38,0.64-7.41,1.9-9.09c1.29-1.71,3.16-2.55,5.71-2.55
				C233.75,56.91,235.62,57.75,236.9,59.43z M227.69,75.83c0.81,1.26,1.97,1.9,3.51,1.9c1.68,0,2.9-0.71,3.64-2.19
				c0.74-1.48,1.06-3.77,1.06-6.93c0-2.13,0.03-5.51-1.35-7.54c-0.71-1.03-1.77-1.74-3.38-1.74c-1.45,0-2.61,0.61-3.45,1.87
				c-0.81,1.22-1.22,3.67-1.22,7.32C226.49,72.13,226.91,74.55,227.69,75.83z"/>
			<path d="M254.82,59.43c1.26,1.64,1.9,4.71,1.9,9.12c0,4.42-0.61,7.41-1.9,9.09c-1.26,1.64-3.16,2.51-5.7,2.51
				s-4.45-0.84-5.71-2.55c-1.26-1.68-1.9-4.71-1.9-9.06c0-4.38,0.64-7.41,1.9-9.09c1.29-1.71,3.16-2.55,5.71-2.55
				S253.53,57.75,254.82,59.43z M245.61,75.83c0.81,1.26,1.97,1.9,3.51,1.9c1.68,0,2.9-0.71,3.64-2.19
				c0.74-1.48,1.06-3.77,1.06-6.93c0-2.13,0.03-5.51-1.35-7.54c-0.71-1.03-1.77-1.74-3.38-1.74c-1.45,0-2.61,0.61-3.45,1.87
				c-0.81,1.22-1.22,3.67-1.22,7.32C244.41,72.13,244.83,74.55,245.61,75.83z"/>
			<path d="M269.55,56.91v22.85h-2.74V63.39h-5.93V61.2h0.1c3.84,0,5.93-1.35,6.48-4.29H269.55z"/>
		</g>
	</g>
	<g>
		<g>
			<g>
				<path d="M78.59,92.05H42.66c-1.93,0-3.5-1.57-3.5-3.5s1.57-3.5,3.5-3.5h35.93c1.93,0,3.5,1.57,3.5,3.5S80.52,92.05,78.59,92.05z
					"/>
			</g>
			<g>
				<path d="M121.05,67.64v13.1c0,6.03-4.89,10.92-10.92,10.92h-4.37c-6.03,0-10.92-4.89-10.92-10.92v-13.1
					c0-6.03,4.89-10.92,10.92-10.92h4.37C116.17,56.73,121.05,61.61,121.05,67.64z M117.78,67.64c-0.01-4.22-3.42-7.63-7.64-7.64
					h-4.37c-4.22,0.01-7.63,3.42-7.64,7.64v13.1c0.01,4.22,3.42,7.63,7.64,7.64h4.37c4.22-0.01,7.63-3.42,7.64-7.64V67.64z
					 M110.14,65.4v2.24c0,1.2-0.98,2.18-2.18,2.18c-1.2,0-2.18-0.98-2.18-2.31V65.4c0-1.2,0.98-2.18,2.18-2.18
					C109.16,63.21,110.14,64.26,110.14,65.4z"/>
			</g>
			<g>
				<path d="M91.43,74.19H17c-2.76,0-5-2.24-5-5V17c0-2.76,2.24-5,5-5h85.96c2.76,0,5,2.24,5,5v35.16h2.75
					c1.48,0,2.91,0.24,4.25,0.67V17c0-6.6-5.4-12-12-12H17C10.4,5,5,10.4,5,17v52.19c0,6.6,5.4,12,12,12h74.43V74.19z"/>
			</g>
		</g>
		<path d="M16.22,41.63V16.22h25.41c0,0-8.76,0.55-16.81,8.61S16.22,41.63,16.22,41.63z"/>
	</g>
</g>
</svg>
